<?xml version="1.0" encoding="UTF-8" standalone="no"?><svg xmlns="http://www.w3.org/2000/svg" xmlns:xlink="http://www.w3.org/1999/xlink" contentScriptType="application/ecmascript" contentStyleType="text/css" height="740px" preserveAspectRatio="none" style="width:1551px;height:740px;background:#FEFEFE;" version="1.1" viewBox="0 0 1551 740" width="1551px" zoomAndPan="magnify"><defs><filter height="300%" id="f1qpqxfgacmejv" width="300%" x="-1" y="-1"><feGaussianBlur result="blurOut" stdDeviation="2.0"/><feColorMatrix in="blurOut" result="blurOut2" type="matrix" values="0 0 0 0 0 0 0 0 0 0 0 0 0 0 0 0 0 0 .4 0"/><feOffset dx="4.0" dy="4.0" in="blurOut2" result="blurOut3"/><feBlend in="SourceGraphic" in2="blurOut3" mode="normal"/></filter></defs><g><!--MD5=[1b22b79248ccb6293af42a8a913dbfdf]
entity changes--><rect fill="#98FB98" filter="url(#f1qpqxfgacmejv)" height="54.1358" style="stroke: #000000; stroke-width: 1.5;" width="111" x="639" y="12"/><rect fill="#98FB98" height="54.1358" style="stroke: #000000; stroke-width: 1.5;" width="111" x="635" y="8"/><text fill="#000000" font-family="sans-serif" font-size="14" lengthAdjust="spacingAndGlyphs" textLength="95" x="643" y="30.9659">* API changes</text><text fill="#000000" font-family="sans-serif" font-size="14" lengthAdjust="spacingAndGlyphs" textLength="74" x="643" y="50.0339">* bug fixes</text><!--MD5=[14a30be117cfd50cacc3e005e456268b]
entity openapi--><polygon fill="#F0F8FF" filter="url(#f1qpqxfgacmejv)" points="624,145,670,145,677,166,761,166,761,206.1358,624,206.1358,624,145" style="stroke: #000000; stroke-width: 1.5;"/><line style="stroke: #000000; stroke-width: 1.5;" x1="624" x2="677" y1="166" y2="166"/><text fill="#000000" font-family="sans-serif" font-size="14" lengthAdjust="spacingAndGlyphs" textLength="107" x="634" y="187.9659">phrase/openapi</text><!--MD5=[66f9f88c9fb598cb139af963a53d9228]
entity actions--><ellipse cx="692.5" cy="283" fill="#FEFECE" filter="url(#f1qpqxfgacmejv)" rx="12" ry="12" style="stroke: #A80036; stroke-width: 2.0;"/><polygon fill="#A80036" points="688.5,271,694.5,266,692.5,271,694.5,276,688.5,271" style="stroke: #A80036; stroke-width: 1.0;"/><text fill="#000000" font-family="sans-serif" font-size="14" lengthAdjust="spacingAndGlyphs" textLength="35" x="675" y="313.9659">build</text><!--MD5=[57a5b41ed6b3ba96fe9b4a740eb3fdc7]
entity docs--><rect fill="#FEFECE" filter="url(#f1qpqxfgacmejv)" height="42.0679" style="stroke: #000000; stroke-width: 1.5;" width="61" x="107" y="406.5"/><polygon fill="#FEFECE" points="151,411.5,151,425.5,163,425.5,163,417.5,157,411.5,151,411.5" style="stroke: #000000; stroke-width: 1.5;"/><line style="stroke: #000000; stroke-width: 1.5;" x1="157" x2="157" y1="411.5" y2="417.5"/><line style="stroke: #000000; stroke-width: 1.5;" x1="163" x2="157" y1="417.5" y2="417.5"/><text fill="#000000" font-family="sans-serif" font-size="14" lengthAdjust="spacingAndGlyphs" textLength="31" x="117" y="434.4659">docs</text><!--MD5=[00ae9dff0f4157a1e57a574ba384be82]
entity developers--><rect fill="#FEFECE" filter="url(#f1qpqxfgacmejv)" height="49.0679" style="stroke: #000000; stroke-width: 1.5;" width="251" x="6" y="538"/><path d="M89.6667,539 L89.6667,543 L82.6667,550 L6,550 " fill="none" style="stroke: #000000; stroke-width: 1.5;"/><text fill="#000000" font-family="sans-serif" font-size="14" lengthAdjust="spacingAndGlyphs" textLength="211" x="21" y="572.9659">https://developers.phrase.com/</text><!--MD5=[f35a8ea5a03aa35ec4be5e3defd7a1a2]
entity go--><polygon fill="#F0F8FF" filter="url(#f1qpqxfgacmejv)" points="206,397,252,397,259,418,357,418,357,458.1358,206,458.1358,206,397" style="stroke: #000000; stroke-width: 1.5;"/><line style="stroke: #000000; stroke-width: 1.5;" x1="206" x2="259" y1="418" y2="418"/><text fill="#000000" font-family="sans-serif" font-size="14" lengthAdjust="spacingAndGlyphs" textLength="121" x="216" y="439.9659">phrase/phrase-go</text><!--MD5=[c251b62818238b6f79269adc5bf7d1e2]
entity cli--><polygon fill="#F0F8FF" filter="url(#f1qpqxfgacmejv)" points="392,397,438,397,445,418,541,418,541,458.1358,392,458.1358,392,397" style="stroke: #000000; stroke-width: 1.5;"/><line style="stroke: #000000; stroke-width: 1.5;" x1="392" x2="445" y1="418" y2="418"/><text fill="#000000" font-family="sans-serif" font-size="14" lengthAdjust="spacingAndGlyphs" textLength="119" x="402" y="439.9659">phrase/phrase-cli</text><!--MD5=[0c3cc20b8e9318d96d36a52f58b7345d]
entity php--><polygon fill="#F0F8FF" filter="url(#f1qpqxfgacmejv)" points="576,397,622,397,629,418,737,418,737,458.1358,576,458.1358,576,397" style="stroke: #000000; stroke-width: 1.5;"/><line style="stroke: #000000; stroke-width: 1.5;" x1="576" x2="629" y1="418" y2="418"/><text fill="#000000" font-family="sans-serif" font-size="14" lengthAdjust="spacingAndGlyphs" textLength="131" x="586" y="439.9659">phrase/phrase-php</text><!--MD5=[431bf97f09493fe295d612ad4ebfd9b8]
entity java--><polygon fill="#F0F8FF" filter="url(#f1qpqxfgacmejv)" points="772,397,818,397,825,418,933,418,933,458.1358,772,458.1358,772,397" style="stroke: #000000; stroke-width: 1.5;"/><line style="stroke: #000000; stroke-width: 1.5;" x1="772" x2="825" y1="418" y2="418"/><text fill="#000000" font-family="sans-serif" font-size="14" lengthAdjust="spacingAndGlyphs" textLength="131" x="782" y="439.9659">phrase/phrase-java</text><!--MD5=[c15c44eddbde3698217cfa31d0e69e09]
entity python--><polygon fill="#F0F8FF" filter="url(#f1qpqxfgacmejv)" points="1168,397,1214,397,1221,418,1349,418,1349,458.1358,1168,458.1358,1168,397" style="stroke: #000000; stroke-width: 1.5;"/><line style="stroke: #000000; stroke-width: 1.5;" x1="1168" x2="1221" y1="418" y2="418"/><text fill="#000000" font-family="sans-serif" font-size="14" lengthAdjust="spacingAndGlyphs" textLength="151" x="1178" y="439.9659">phrase/phrase-python</text><!--MD5=[e0889cea4ce2fe8f46a404b507b4ad55]
entity ruby--><polygon fill="#F0F8FF" filter="url(#f1qpqxfgacmejv)" points="968,397,1014,397,1021,418,1133,418,1133,458.1358,968,458.1358,968,397" style="stroke: #000000; stroke-width: 1.5;"/><line style="stroke: #000000; stroke-width: 1.5;" x1="968" x2="1021" y1="418" y2="418"/><text fill="#000000" font-family="sans-serif" font-size="14" lengthAdjust="spacingAndGlyphs" textLength="135" x="978" y="439.9659">phrase/phrase-ruby</text><!--MD5=[e2abac825dedb3f17b65348391e6f31a]
entity js--><polygon fill="#F0F8FF" filter="url(#f1qpqxfgacmejv)" points="1384,397,1430,397,1437,418,1529,418,1529,458.1358,1384,458.1358,1384,397" style="stroke: #000000; stroke-width: 1.5;"/><line style="stroke: #000000; stroke-width: 1.5;" x1="1384" x2="1437" y1="418" y2="418"/><text fill="#000000" font-family="sans-serif" font-size="14" lengthAdjust="spacingAndGlyphs" textLength="115" x="1394" y="439.9659">phrase/phrase-js</text><!--MD5=[b44febeeef72cfd37b384650645b2a00]
entity go_actions--><ellipse cx="309.5" cy="553" fill="#FEFECE" filter="url(#f1qpqxfgacmejv)" rx="12" ry="12" style="stroke: #A80036; stroke-width: 2.0;"/><polygon fill="#A80036" points="305.5,541,311.5,536,309.5,541,311.5,546,305.5,541" style="stroke: #A80036; stroke-width: 1.0;"/><text fill="#000000" font-family="sans-serif" font-size="14" lengthAdjust="spacingAndGlyphs" textLength="35" x="292" y="583.9659">build</text><!--MD5=[2440dd13a51cfac06d1892ed1d953d34]
entity build_cli--><ellipse cx="470.5" cy="553" fill="#FEFECE" filter="url(#f1qpqxfgacmejv)" rx="12" ry="12" style="stroke: #A80036; stroke-width: 2.0;"/><polygon fill="#A80036" points="466.5,541,472.5,536,470.5,541,472.5,546,466.5,541" style="stroke: #A80036; stroke-width: 1.0;"/><text fill="#000000" font-family="sans-serif" font-size="14" lengthAdjust="spacingAndGlyphs" textLength="35" x="453" y="583.9659">build</text><!--MD5=[5d3c40160a6ab50a5363676e85983f04]
entity build_java--><ellipse cx="887.5" cy="553" fill="#FEFECE" filter="url(#f1qpqxfgacmejv)" rx="12" ry="12" style="stroke: #A80036; stroke-width: 2.0;"/><polygon fill="#A80036" points="883.5,541,889.5,536,887.5,541,889.5,546,883.5,541" style="stroke: #A80036; stroke-width: 1.0;"/><text fill="#000000" font-family="sans-serif" font-size="14" lengthAdjust="spacingAndGlyphs" textLength="35" x="870" y="583.9659">build</text><!--MD5=[ea0921a3106364fdaaad77f2cb92d861]
entity build_js--><ellipse cx="1456.5" cy="553" fill="#FEFECE" filter="url(#f1qpqxfgacmejv)" rx="12" ry="12" style="stroke: #A80036; stroke-width: 2.0;"/><polygon fill="#A80036" points="1452.5,541,1458.5,536,1456.5,541,1458.5,546,1452.5,541" style="stroke: #A80036; stroke-width: 1.0;"/><text fill="#000000" font-family="sans-serif" font-size="14" lengthAdjust="spacingAndGlyphs" textLength="35" x="1439" y="583.9659">build</text><!--MD5=[4c540ba3bb182ea7ce34e2ff1cde85d4]
entity build_ruby--><ellipse cx="1015.5" cy="553" fill="#FEFECE" filter="url(#f1qpqxfgacmejv)" rx="12" ry="12" style="stroke: #A80036; stroke-width: 2.0;"/><polygon fill="#A80036" points="1011.5,541,1017.5,536,1015.5,541,1017.5,546,1011.5,541" style="stroke: #A80036; stroke-width: 1.0;"/><text fill="#000000" font-family="sans-serif" font-size="14" lengthAdjust="spacingAndGlyphs" textLength="35" x="998" y="583.9659">build</text><!--MD5=[f053e14b8b54c475a7ab8e89518b6ec9]
entity build_python--><ellipse cx="1258.5" cy="553" fill="#FEFECE" filter="url(#f1qpqxfgacmejv)" rx="12" ry="12" style="stroke: #A80036; stroke-width: 2.0;"/><polygon fill="#A80036" points="1254.5,541,1260.5,536,1258.5,541,1260.5,546,1254.5,541" style="stroke: #A80036; stroke-width: 1.0;"/><text fill="#000000" font-family="sans-serif" font-size="14" lengthAdjust="spacingAndGlyphs" textLength="35" x="1241" y="583.9659">build</text><!--MD5=[8a60c172ac197ff2572fef63d05b20a6]
entity go_library--><rect fill="#FEFECE" filter="url(#f1qpqxfgacmejv)" height="42.0679" style="stroke: #000000; stroke-width: 1.5;" width="97" x="261" y="676.5"/><polygon fill="#FEFECE" points="341,681.5,341,695.5,353,695.5,353,687.5,347,681.5,341,681.5" style="stroke: #000000; stroke-width: 1.5;"/><line style="stroke: #000000; stroke-width: 1.5;" x1="347" x2="347" y1="681.5" y2="687.5"/><line style="stroke: #000000; stroke-width: 1.5;" x1="353" x2="347" y1="687.5" y2="687.5"/><text fill="#000000" font-family="sans-serif" font-size="14" lengthAdjust="spacingAndGlyphs" textLength="67" x="271" y="704.4659">go_library</text><!--MD5=[f498bfb6a50953d290bdf627d6fd2c60]
entity docker_images--><rect fill="#FEFECE" filter="url(#f1qpqxfgacmejv)" height="42.0679" style="stroke: #000000; stroke-width: 1.5;" width="154" x="393.5" y="676.5"/><polygon fill="#FEFECE" points="530.5,681.5,530.5,695.5,542.5,695.5,542.5,687.5,536.5,681.5,530.5,681.5" style="stroke: #000000; stroke-width: 1.5;"/><line style="stroke: #000000; stroke-width: 1.5;" x1="536.5" x2="536.5" y1="681.5" y2="687.5"/><line style="stroke: #000000; stroke-width: 1.5;" x1="542.5" x2="536.5" y1="687.5" y2="687.5"/><text fill="#000000" font-family="sans-serif" font-size="14" lengthAdjust="spacingAndGlyphs" textLength="124" x="403.5" y="704.4659">Docker CLI images</text><!--MD5=[2c7372832d9e783738d99ecf0bfc8dde]
entity homebrew--><polygon fill="#FEFECE" filter="url(#f1qpqxfgacmejv)" points="582.5,667,628.5,667,635.5,688,684.5,688,684.5,728.1358,582.5,728.1358,582.5,667" style="stroke: #000000; stroke-width: 1.5;"/><line style="stroke: #000000; stroke-width: 1.5;" x1="582.5" x2="635.5" y1="688" y2="688"/><text fill="#000000" font-family="sans-serif" font-size="14" lengthAdjust="spacingAndGlyphs" textLength="72" x="592.5" y="709.9659">homebrew</text><!--MD5=[fad38f6ce6c98319c380bb868f6f9a58]
entity github_package_registry--><rect fill="#FEFECE" filter="url(#f1qpqxfgacmejv)" height="35.0679" style="stroke: #000000; stroke-width: 1.5;" width="178" x="854.5" y="682"/><rect fill="#FEFECE" height="35.0679" style="stroke: #000000; stroke-width: 1.5;" width="178" x="850.5" y="678"/><text fill="#000000" font-family="sans-serif" font-size="14" lengthAdjust="spacingAndGlyphs" textLength="162" x="858.5" y="700.9659">Github package registry</text><!--MD5=[ff7a41c1395361ee029806f0eb7e0726]
entity npm--><rect fill="#FEFECE" filter="url(#f1qpqxfgacmejv)" height="42.0679" style="stroke: #000000; stroke-width: 1.5;" width="155" x="1379" y="676.5"/><polygon fill="#FEFECE" points="1517,681.5,1517,695.5,1529,695.5,1529,687.5,1523,681.5,1517,681.5" style="stroke: #000000; stroke-width: 1.5;"/><line style="stroke: #000000; stroke-width: 1.5;" x1="1523" x2="1523" y1="681.5" y2="687.5"/><line style="stroke: #000000; stroke-width: 1.5;" x1="1529" x2="1523" y1="687.5" y2="687.5"/><text fill="#000000" font-family="sans-serif" font-size="14" lengthAdjust="spacingAndGlyphs" textLength="125" x="1389" y="704.4659">registry.npmjs.org</text><!--MD5=[df6e18520c5092e5586c629876e4b3c1]
entity PyPI--><rect fill="#FEFECE" filter="url(#f1qpqxfgacmejv)" height="42.0679" style="stroke: #000000; stroke-width: 1.5;" width="58" x="1229.5" y="676.5"/><polygon fill="#FEFECE" points="1270.5,681.5,1270.5,695.5,1282.5,695.5,1282.5,687.5,1276.5,681.5,1270.5,681.5" style="stroke: #000000; stroke-width: 1.5;"/><line style="stroke: #000000; stroke-width: 1.5;" x1="1276.5" x2="1276.5" y1="681.5" y2="687.5"/><line style="stroke: #000000; stroke-width: 1.5;" x1="1282.5" x2="1276.5" y1="687.5" y2="687.5"/><text fill="#000000" font-family="sans-serif" font-size="14" lengthAdjust="spacingAndGlyphs" textLength="28" x="1239.5" y="704.4659">PyPI</text><!--MD5=[004b1a9d37afc47e2e95d44d2881ab66]
link changes to openapi--><path d="M692.5,66.28 C692.5,87.63 692.5,117.02 692.5,139.79 " fill="none" id="changes-&gt;openapi" style="stroke: #A80036; stroke-width: 1.0;"/><polygon fill="#A80036" points="692.5,144.84,696.5,135.84,692.5,139.84,688.5,135.84,692.5,144.84" style="stroke: #A80036; stroke-width: 1.0;"/><text fill="#000000" font-family="sans-serif" font-size="13" lengthAdjust="spacingAndGlyphs" textLength="30" x="693.5" y="110.897">push</text><!--MD5=[2f01160c9f8bbac06160652c1cb1e875]
link openapi to actions--><path d="M692.5,206.12 C692.5,223.12 692.5,244.43 692.5,261.5 " fill="none" id="openapi-&gt;actions" style="stroke: #A80036; stroke-width: 1.0;"/><polygon fill="#A80036" points="692.5,266.65,696.5,257.65,692.5,261.65,688.5,257.65,692.5,266.65" style="stroke: #A80036; stroke-width: 1.0;"/><!--MD5=[2cee70cf28089589574d0fd90a78afc3]
link actions to docs--><path d="M674.97,295.05 C609.1,301.27 370.93,327.61 188.5,397 C183.3,398.98 178.01,401.44 172.91,404.1 " fill="none" id="actions-&gt;docs" style="stroke: #A80036; stroke-width: 1.0;"/><polygon fill="#A80036" points="168.27,406.59,178.0904,405.8412,172.6714,404.2178,174.2948,398.7989,168.27,406.59" style="stroke: #A80036; stroke-width: 1.0;"/><!--MD5=[6334d8fc07670a892897ee53af1fecec]
link docs to developers--><path d="M136.59,448.7 C135.58,471.09 133.94,507.38 132.8,532.73 " fill="none" id="docs-&gt;developers" style="stroke: #A80036; stroke-width: 1.0;"/><polygon fill="#A80036" points="132.56,537.96,136.9668,529.1521,132.7883,532.9652,128.9752,528.7867,132.56,537.96" style="stroke: #A80036; stroke-width: 1.0;"/><text fill="#000000" font-family="sans-serif" font-size="13" lengthAdjust="spacingAndGlyphs" textLength="44" x="136.5" y="502.897">publish</text><!--MD5=[8a7d5ef6077e6261da41a69ca3ee79a5]
link actions to go--><path d="M674.84,299.21 C621.73,316.4 461.05,368.4 362.25,400.37 " fill="none" id="actions-&gt;go" style="stroke: #A80036; stroke-width: 1.0;"/><polygon fill="#A80036" points="357.3,401.97,367.095,402.9983,362.0561,400.4275,364.627,395.3886,357.3,401.97" style="stroke: #A80036; stroke-width: 1.0;"/><text fill="#000000" font-family="sans-serif" font-size="13" lengthAdjust="spacingAndGlyphs" textLength="30" x="525.5" y="362.897">push</text><!--MD5=[f4c5d8bcb7dcaea921ecc6853cc22771]
link actions to php--><path d="M685.81,318.2 C680.22,338.88 672.17,368.61 665.92,391.7 " fill="none" id="actions-&gt;php" style="stroke: #A80036; stroke-width: 1.0;"/><polygon fill="#A80036" points="664.54,396.81,670.7422,389.1594,665.8399,391.9819,663.0173,387.0796,664.54,396.81" style="stroke: #A80036; stroke-width: 1.0;"/><text fill="#000000" font-family="sans-serif" font-size="13" lengthAdjust="spacingAndGlyphs" textLength="30" x="679.5" y="362.897">push</text><!--MD5=[0a6d3184912226eb4ea7609bf2157d28]
link actions to java--><path d="M710.23,308.24 C734.86,328.71 780.09,366.31 812.96,393.63 " fill="none" id="actions-&gt;java" style="stroke: #A80036; stroke-width: 1.0;"/><polygon fill="#A80036" points="816.91,396.91,812.5535,388.077,813.0677,393.7105,807.4343,394.2247,816.91,396.91" style="stroke: #A80036; stroke-width: 1.0;"/><text fill="#000000" font-family="sans-serif" font-size="13" lengthAdjust="spacingAndGlyphs" textLength="30" x="778.5" y="362.897">push</text><!--MD5=[b5873dd987ca9f93855d081d0a308cf9]
link actions to python--><path d="M710.04,297.17 C771.05,310 979.65,354.39 1150.5,397 C1154.57,398.01 1158.71,399.07 1162.9,400.14 " fill="none" id="actions-&gt;python" style="stroke: #A80036; stroke-width: 1.0;"/><polygon fill="#A80036" points="1167.83,401.42,1160.1238,395.287,1162.9904,400.1637,1158.1137,403.0303,1167.83,401.42" style="stroke: #A80036; stroke-width: 1.0;"/><text fill="#000000" font-family="sans-serif" font-size="13" lengthAdjust="spacingAndGlyphs" textLength="30" x="1026.5" y="362.897">push</text><!--MD5=[e8c1cc55ab9bb4afb632ee8ceea2efae]
link actions to cli--><path d="M674.77,303.94 C642.14,323.14 571.37,364.78 521.41,394.18 " fill="none" id="actions-&gt;cli" style="stroke: #A80036; stroke-width: 1.0;"/><polygon fill="#A80036" points="516.95,396.81,526.7357,395.696,521.26,394.2755,522.6805,388.7999,516.95,396.81" style="stroke: #A80036; stroke-width: 1.0;"/><text fill="#000000" font-family="sans-serif" font-size="13" lengthAdjust="spacingAndGlyphs" textLength="30" x="601.5" y="362.897">push</text><!--MD5=[ee2a893b6dcd36e3591d324a906a75aa]
link actions to ruby--><path d="M710.25,300.1 C756.16,317.15 881.11,363.57 966.12,395.15 " fill="none" id="actions-&gt;ruby" style="stroke: #A80036; stroke-width: 1.0;"/><polygon fill="#A80036" points="970.89,396.93,963.8491,390.0434,966.2037,395.1869,961.0601,397.5415,970.89,396.93" style="stroke: #A80036; stroke-width: 1.0;"/><text fill="#000000" font-family="sans-serif" font-size="13" lengthAdjust="spacingAndGlyphs" textLength="30" x="883.5" y="362.897">push</text><!--MD5=[b31369bcfe09b0b0f06181f924483127]
link actions to js--><path d="M710.16,295.08 C788.22,302.28 1109.72,334.42 1366.5,397 C1370.52,397.98 1374.62,399.05 1378.74,400.19 " fill="none" id="actions-&gt;js" style="stroke: #A80036; stroke-width: 1.0;"/><polygon fill="#A80036" points="1383.59,401.55,1376.0129,395.2581,1378.7776,400.1934,1373.8423,402.958,1383.59,401.55" style="stroke: #A80036; stroke-width: 1.0;"/><text fill="#000000" font-family="sans-serif" font-size="13" lengthAdjust="spacingAndGlyphs" textLength="30" x="1221.5" y="362.897">push</text><!--MD5=[14ac31e8d56821db6e6124e7b12158db]
link go to go_actions--><path d="M287.71,458.02 C292.34,479.98 298.62,509.84 303.25,531.83 " fill="none" id="go-&gt;go_actions" style="stroke: #A80036; stroke-width: 1.0;"/><polygon fill="#A80036" points="304.33,536.97,306.3958,527.3402,303.3028,532.0766,298.5664,528.9837,304.33,536.97" style="stroke: #A80036; stroke-width: 1.0;"/><!--MD5=[732a82abb55e5797b03369c9bf5ea4dd]
link go_actions to go_library--><path d="M309.5,588.2 C309.5,611.81 309.5,647.23 309.5,671.08 " fill="none" id="go_actions-&gt;go_library" style="stroke: #A80036; stroke-width: 1.0;"/><polygon fill="#A80036" points="309.5,676.28,313.5,667.28,309.5,671.28,305.5,667.28,309.5,676.28" style="stroke: #A80036; stroke-width: 1.0;"/><text fill="#000000" font-family="sans-serif" font-size="13" lengthAdjust="spacingAndGlyphs" textLength="44" x="310.5" y="632.897">publish</text><!--MD5=[9d471a4932fbe0a79043709da12adc53]
link cli to build_cli--><path d="M462.56,458.34 C461.14,473.01 460.18,490.94 461.5,507 C462.16,515 463.34,523.59 464.65,531.54 " fill="none" id="cli-&gt;build_cli" style="stroke: #A80036; stroke-width: 1.0;"/><polygon fill="#A80036" points="465.56,536.92,467.9857,527.3745,464.7172,531.9915,460.1001,528.7231,465.56,536.92" style="stroke: #A80036; stroke-width: 1.0;"/><!--MD5=[1db95241348d22c6e24b72bc8af95dde]
link build_cli to cli--><path d="M469.76,536.97 C469.14,516.24 468.24,486.32 467.54,463.15 " fill="none" id="build_cli-&gt;cli" style="stroke: #A80036; stroke-width: 1.0; stroke-dasharray: 7.0,7.0;"/><polygon fill="#A80036" points="467.39,458.02,463.6747,467.1412,467.5471,463.0175,471.6707,466.8899,467.39,458.02" style="stroke: #A80036; stroke-width: 1.0;"/><text fill="#000000" font-family="sans-serif" font-size="13" lengthAdjust="spacingAndGlyphs" textLength="103" x="470.5" y="502.897">upload to release</text><!--MD5=[9cefca4bf5d7659ef77524115c7c9a7e]
link build_cli to go_library--><path d="M452.96,577.99 C425.24,600.89 371.03,645.67 337.76,673.15 " fill="none" id="build_cli-&gt;go_library" style="stroke: #A80036; stroke-width: 1.0; stroke-dasharray: 7.0,7.0;"/><polygon fill="#A80036" points="333.81,676.42,343.2964,673.7728,337.6651,673.236,338.202,667.6046,333.81,676.42" style="stroke: #A80036; stroke-width: 1.0;"/><text fill="#000000" font-family="sans-serif" font-size="13" lengthAdjust="spacingAndGlyphs" textLength="21" x="405.5" y="632.897">use</text><!--MD5=[4579367eb33dc51b0c9092d0b613f74a]
link build_cli to homebrew--><path d="M488.25,577.99 C513.23,598.37 559.44,636.07 593.05,663.49 " fill="none" id="build_cli-&gt;homebrew" style="stroke: #A80036; stroke-width: 1.0;"/><polygon fill="#A80036" points="597.08,666.78,592.6332,657.9922,593.2051,663.62,587.5773,664.192,597.08,666.78" style="stroke: #A80036; stroke-width: 1.0;"/><text fill="#000000" font-family="sans-serif" font-size="13" lengthAdjust="spacingAndGlyphs" textLength="86" x="558.5" y="632.897">bump formula</text><!--MD5=[c98974c909ec6885ced1c51bb64d7ca7]
link build_cli to docker_images--><path d="M470.5,588.2 C470.5,611.81 470.5,647.23 470.5,671.08 " fill="none" id="build_cli-&gt;docker_images" style="stroke: #A80036; stroke-width: 1.0;"/><polygon fill="#A80036" points="470.5,676.28,474.5,667.28,470.5,671.28,466.5,667.28,470.5,676.28" style="stroke: #A80036; stroke-width: 1.0;"/><text fill="#000000" font-family="sans-serif" font-size="13" lengthAdjust="spacingAndGlyphs" textLength="30" x="471.5" y="632.897">push</text><!--MD5=[9457594297380c8211bf65de5d47ef8c]
link java to build_java--><path d="M847.97,458.16 C846.72,473.11 846.79,491.34 851.5,507 C854.7,517.64 860.72,528.12 866.94,537 " fill="none" id="java-&gt;build_java" style="stroke: #A80036; stroke-width: 1.0;"/><polygon fill="#A80036" points="869.99,541.22,867.9658,531.5814,867.0636,537.1659,861.4791,536.2637,869.99,541.22" style="stroke: #A80036; stroke-width: 1.0;"/><!--MD5=[209cd5dba3b37d591e312fe16bb7a266]
link build_java to java--><path d="M881.04,536.97 C875.57,516.15 867.65,486.07 861.54,462.86 " fill="none" id="build_java-&gt;java" style="stroke: #A80036; stroke-width: 1.0; stroke-dasharray: 7.0,7.0;"/><polygon fill="#A80036" points="860.27,458.02,858.6936,467.7419,861.5432,462.8552,866.4299,465.7048,860.27,458.02" style="stroke: #A80036; stroke-width: 1.0;"/><text fill="#000000" font-family="sans-serif" font-size="13" lengthAdjust="spacingAndGlyphs" textLength="103" x="874.5" y="502.897">upload to release</text><!--MD5=[e0af0947ed7021b29fb915a3f1b23577]
link build_java to github_package_registry--><path d="M897.03,588.05 C902.63,602.36 909.88,620.74 916.5,637 C921.34,648.88 926.85,662.03 931.46,672.94 " fill="none" id="build_java-&gt;github_package_registry" style="stroke: #A80036; stroke-width: 1.0;"/><polygon fill="#A80036" points="933.51,677.79,933.6931,667.9428,931.5646,673.184,926.3235,671.0555,933.51,677.79" style="stroke: #A80036; stroke-width: 1.0;"/><text fill="#000000" font-family="sans-serif" font-size="13" lengthAdjust="spacingAndGlyphs" textLength="44" x="917.5" y="632.897">publish</text><!--MD5=[73bbfcee3359ef3f12aeab2f6c67c872]
link python to build_python--><path d="M1253.69,458.29 C1251.88,472.95 1250.47,490.89 1251.5,507 C1252.01,514.97 1252.93,523.55 1253.95,531.49 " fill="none" id="python-&gt;build_python" style="stroke: #A80036; stroke-width: 1.0;"/><polygon fill="#A80036" points="1254.66,536.88,1257.4426,527.4324,1254.0029,531.9234,1249.512,528.4837,1254.66,536.88" style="stroke: #A80036; stroke-width: 1.0;"/><!--MD5=[a32d3064141c659aa4bbe6f37cf9aca9]
link build_python to python--><path d="M1258.5,536.97 C1258.5,516.24 1258.5,486.32 1258.5,463.15 " fill="none" id="build_python-&gt;python" style="stroke: #A80036; stroke-width: 1.0; stroke-dasharray: 7.0,7.0;"/><polygon fill="#A80036" points="1258.5,458.02,1254.5,467.02,1258.5,463.02,1262.5,467.02,1258.5,458.02" style="stroke: #A80036; stroke-width: 1.0;"/><text fill="#000000" font-family="sans-serif" font-size="13" lengthAdjust="spacingAndGlyphs" textLength="103" x="1259.5" y="502.897">upload to release</text><!--MD5=[5895fe7329142886de8ddd1486b672f2]
link build_python to PyPI--><path d="M1258.5,588.2 C1258.5,611.81 1258.5,647.23 1258.5,671.08 " fill="none" id="build_python-&gt;PyPI" style="stroke: #A80036; stroke-width: 1.0;"/><polygon fill="#A80036" points="1258.5,676.28,1262.5,667.28,1258.5,671.28,1254.5,667.28,1258.5,676.28" style="stroke: #A80036; stroke-width: 1.0;"/><text fill="#000000" font-family="sans-serif" font-size="13" lengthAdjust="spacingAndGlyphs" textLength="44" x="1259.5" y="632.897">publish</text><!--MD5=[6fc951664f90b54bb93f4b86da0c311c]
link js to build_js--><path d="M1456.5,458.02 C1456.5,479.98 1456.5,509.84 1456.5,531.83 " fill="none" id="js-&gt;build_js" style="stroke: #A80036; stroke-width: 1.0;"/><polygon fill="#A80036" points="1456.5,536.97,1460.5,527.97,1456.5,531.97,1452.5,527.97,1456.5,536.97" style="stroke: #A80036; stroke-width: 1.0;"/><!--MD5=[288b2524038bf5a97849b342f44a9ffc]
link build_js to npm--><path d="M1456.5,588.2 C1456.5,611.81 1456.5,647.23 1456.5,671.08 " fill="none" id="build_js-&gt;npm" style="stroke: #A80036; stroke-width: 1.0;"/><polygon fill="#A80036" points="1456.5,676.28,1460.5,667.28,1456.5,671.28,1452.5,667.28,1456.5,676.28" style="stroke: #A80036; stroke-width: 1.0;"/><text fill="#000000" font-family="sans-serif" font-size="13" lengthAdjust="spacingAndGlyphs" textLength="44" x="1457.5" y="632.897">publish</text><!--MD5=[bb18db5c5c5b8ccd90ba1197b2e59a35]
link ruby to build_ruby--><path d="M1042.73,458.02 C1036.93,480.07 1029.03,510.09 1023.23,532.11 " fill="none" id="ruby-&gt;build_ruby" style="stroke: #A80036; stroke-width: 1.0;"/><polygon fill="#A80036" points="1021.96,536.97,1028.1411,529.3023,1023.2465,532.1384,1020.4104,527.2438,1021.96,536.97" style="stroke: #A80036; stroke-width: 1.0;"/><!--MD5=[32e1f21fece8d35ed8a6e10170fde8ac]
link build_ruby to ruby--><path d="M1024.91,536.76 C1028.22,527.51 1031.79,516.86 1034.5,507 C1038.41,492.79 1041.82,476.89 1044.48,463.13 " fill="none" id="build_ruby-&gt;ruby" style="stroke: #A80036; stroke-width: 1.0; stroke-dasharray: 7.0,7.0;"/><polygon fill="#A80036" points="1045.43,458.17,1039.8285,466.2708,1044.5017,463.0831,1047.6894,467.7562,1045.43,458.17" style="stroke: #A80036; stroke-width: 1.0;"/><text fill="#000000" font-family="sans-serif" font-size="13" lengthAdjust="spacingAndGlyphs" textLength="72" x="1040.5" y="502.897">release gem</text><!--MD5=[398cb4c68c4884002b55e118802b891e]
link build_ruby to github_package_registry--><path d="M1001.75,588.2 C988.2,612.57 967.63,649.53 954.38,673.35 " fill="none" id="build_ruby-&gt;github_package_registry" style="stroke: #A80036; stroke-width: 1.0;"/><polygon fill="#A80036" points="951.83,677.93,959.7056,672.0161,954.2643,673.5626,952.7178,668.1212,951.83,677.93" style="stroke: #A80036; stroke-width: 1.0;"/><text fill="#000000" font-family="sans-serif" font-size="13" lengthAdjust="spacingAndGlyphs" textLength="44" x="986.5" y="632.897">publish</text><!--MD5=[e2ee3382d26221c6a0c43e20d342c91d]
@startuml "openapi workflow"
skinparam backgroundColor #fefefe

collections "* API changes\n* bug fixes" as changes #PaleGreen
folder "phrase/openapi" as openapi #AliceBlue
control "build" as actions

artifact docs
frame "https://developers.phrase.com/" as developers

folder "phrase/phrase-go" as go #AliceBlue
folder "phrase/phrase-cli" as cli #AliceBlue
folder "phrase/phrase-php" as php #AliceBlue
folder "phrase/phrase-java" as java #AliceBlue
folder "phrase/phrase-python" as python #AliceBlue
folder "phrase/phrase-ruby" as ruby #AliceBlue
folder "phrase/phrase-js" as js #AliceBlue


control "build" as go_actions
control "build" as build_cli
control "build" as build_java
control "build" as build_js
control "build" as build_ruby
control "build" as build_python

artifact go_library
artifact "Docker CLI images" as docker_images
folder homebrew
collections "Github package registry" as github_package_registry
artifact "registry.npmjs.org" as npm
artifact "PyPI"

changes - -> openapi : push
openapi - -> actions
actions - -> docs
docs - -> developers : publish
actions - -> go : push
actions - -> php : push
actions - -> java : push
actions - -> python : push
actions - -> cli : push
actions - -> ruby : push
actions - -> js : push

go - -> go_actions
go_actions - -> go_library : publish

cli - -> build_cli
build_cli ..> go_library : use
build_cli - -> homebrew : bump formula
build_cli - -> docker_images : push
build_cli ..> cli : upload to release

java - -> build_java
build_java ..> java : upload to release
build_java - -> github_package_registry : publish

python - -> build_python
build_python ..> python : upload to release
build_python - -> PyPI : publish

js - -> build_js
build_js - -> npm : publish

ruby - -> build_ruby
build_ruby - -> github_package_registry : publish
build_ruby ..> ruby : release gem

@enduml

PlantUML version 1.2020.02(Sun Mar 01 11:22:07 CET 2020)
(GPL source distribution)
Java Runtime: OpenJDK Runtime Environment
JVM: OpenJDK 64-Bit Server VM
Java Version: 21.0.7+6-Debian-1
Operating System: Linux
Default Encoding: UTF-8
Language: en
Country: GB
--></g></svg>