<?xml version="1.0" encoding="UTF-8" standalone="no"?><svg xmlns="http://www.w3.org/2000/svg" xmlns:xlink="http://www.w3.org/1999/xlink" contentStyleType="text/css" height="972px" preserveAspectRatio="none" style="width:1118px;height:972px;background:#FFFFFF;" version="1.1" viewBox="0 0 1118 972" width="1118px" zoomAndPan="magnify"><defs/><g><!--MD5=[1b22b79248ccb6293af42a8a913dbfdf]
entity changes--><g id="elem_changes"><rect fill="#F1F1F1" height="64.8906" rx="2.5" ry="2.5" style="stroke:#181818;stroke-width:0.5;" width="116" x="489.5" y="11"/><rect fill="#F1F1F1" height="64.8906" rx="2.5" ry="2.5" style="stroke:#181818;stroke-width:0.5;" width="116" x="485.5" y="7"/><ellipse cx="499" cy="23.7969" fill="#000000" rx="2.5" ry="2.5" style="stroke:#000000;stroke-width:0.0;"/><text fill="#000000" font-family="sans-serif" font-size="14" lengthAdjust="spacing" textLength="85" x="506.5" y="27.9951">API changes</text><ellipse cx="499" cy="40.0938" fill="#000000" rx="2.5" ry="2.5" style="stroke:#000000;stroke-width:0.0;"/><text fill="#000000" font-family="sans-serif" font-size="14" lengthAdjust="spacing" textLength="62" x="506.5" y="44.292">bug fixes</text><ellipse cx="499" cy="56.3906" fill="#000000" rx="2.5" ry="2.5" style="stroke:#000000;stroke-width:0.0;"/><text fill="#000000" font-family="sans-serif" font-size="14" lengthAdjust="spacing" textLength="87" x="506.5" y="60.5889">doc updates</text></g><!--MD5=[14a30be117cfd50cacc3e005e456268b]
entity openapi--><g id="elem_openapi"><path d="M478.5,153 L519.5,153 A3.75,3.75 0 0 1 522,155.5 L529,174 L612.5,174 A2.5,2.5 0 0 1 615,176.5 L615,204.7969 A2.5,2.5 0 0 1 612.5,207.2969 L478.5,207.2969 A2.5,2.5 0 0 1 476,204.7969 L476,155.5 A2.5,2.5 0 0 1 478.5,153 " fill="#F1F1F1" style="stroke:#181818;stroke-width:0.5;"/><line style="stroke:#181818;stroke-width:0.5;" x1="476" x2="529" y1="174" y2="174"/><text fill="#000000" font-family="sans-serif" font-size="14" lengthAdjust="spacing" textLength="109" x="486" y="193.9951">phrase/openapi</text></g><!--MD5=[66f9f88c9fb598cb139af963a53d9228]
entity actions--><g id="elem_actions"><ellipse cx="545.5" cy="284" fill="#F1F1F1" rx="12" ry="12" style="stroke:#181818;stroke-width:0.5;"/><polygon fill="#181818" points="541.5,272,547.5,267,545.5,272,547.5,277,541.5,272" style="stroke:#181818;stroke-width:1.0;"/><text fill="#000000" font-family="sans-serif" font-size="14" lengthAdjust="spacing" textLength="100" x="495.5" y="312.9951">Github actions</text></g><!--MD5=[57a5b41ed6b3ba96fe9b4a740eb3fdc7]
entity docs--><g id="elem_docs"><rect fill="#F1F1F1" height="39.2969" rx="2.5" ry="2.5" style="stroke:#181818;stroke-width:0.5;" width="64" x="143.5" y="400.5"/><polygon fill="#F1F1F1" points="190.5,405.5,190.5,419.5,202.5,419.5,202.5,411.5,196.5,405.5,190.5,405.5" style="stroke:#181818;stroke-width:0.5;"/><line style="stroke:#181818;stroke-width:0.5;" x1="196.5" x2="196.5" y1="405.5" y2="411.5"/><line style="stroke:#181818;stroke-width:0.5;" x1="202.5" x2="196.5" y1="411.5" y2="411.5"/><text fill="#000000" font-family="sans-serif" font-size="14" lengthAdjust="spacing" textLength="34" x="153.5" y="426.4951">docs</text></g><!--MD5=[00ae9dff0f4157a1e57a574ba384be82]
entity developers--><g id="elem_developers"><rect fill="#F1F1F1" height="46.2969" rx="2.5" ry="2.5" style="stroke:#181818;stroke-width:0.5;" width="279" x="7" y="562"/><path d="M100,562 L100,567 L93,574 L7,574 " fill="none" style="stroke:#181818;stroke-width:0.5;"/><text fill="#000000" font-family="sans-serif" font-size="14" lengthAdjust="spacing" textLength="239" x="22" y="594.9951">https://developers.phrase.com/api</text></g><!--MD5=[f35a8ea5a03aa35ec4be5e3defd7a1a2]
entity go--><g id="elem_go"><path d="M274,393 L315,393 A3.75,3.75 0 0 1 317.5,395.5 L324.5,414 L423,414 A2.5,2.5 0 0 1 425.5,416.5 L425.5,444.7969 A2.5,2.5 0 0 1 423,447.2969 L274,447.2969 A2.5,2.5 0 0 1 271.5,444.7969 L271.5,395.5 A2.5,2.5 0 0 1 274,393 " fill="#F1F1F1" style="stroke:#181818;stroke-width:0.5;"/><line style="stroke:#181818;stroke-width:0.5;" x1="271.5" x2="324.5" y1="414" y2="414"/><text fill="#000000" font-family="sans-serif" font-size="14" lengthAdjust="spacing" textLength="124" x="281.5" y="433.9951">phrase/phrase-go</text></g><!--MD5=[c251b62818238b6f79269adc5bf7d1e2]
entity cli--><g id="elem_cli"><path d="M406,477 L447,477 A3.75,3.75 0 0 1 449.5,479.5 L456.5,498 L551,498 A2.5,2.5 0 0 1 553.5,500.5 L553.5,528.7969 A2.5,2.5 0 0 1 551,531.2969 L406,531.2969 A2.5,2.5 0 0 1 403.5,528.7969 L403.5,479.5 A2.5,2.5 0 0 1 406,477 " fill="#F1F1F1" style="stroke:#181818;stroke-width:0.5;"/><line style="stroke:#181818;stroke-width:0.5;" x1="403.5" x2="456.5" y1="498" y2="498"/><text fill="#000000" font-family="sans-serif" font-size="14" lengthAdjust="spacing" textLength="120" x="413.5" y="517.9951">phrase/phrase-cli</text></g><!--MD5=[0c3cc20b8e9318d96d36a52f58b7345d]
entity php--><g id="elem_php"><path d="M534.5,393 L575.5,393 A3.75,3.75 0 0 1 578,395.5 L585,414 L692.5,414 A2.5,2.5 0 0 1 695,416.5 L695,444.7969 A2.5,2.5 0 0 1 692.5,447.2969 L534.5,447.2969 A2.5,2.5 0 0 1 532,444.7969 L532,395.5 A2.5,2.5 0 0 1 534.5,393 " fill="#F1F1F1" style="stroke:#181818;stroke-width:0.5;"/><line style="stroke:#181818;stroke-width:0.5;" x1="532" x2="585" y1="414" y2="414"/><text fill="#000000" font-family="sans-serif" font-size="14" lengthAdjust="spacing" textLength="133" x="542" y="433.9951">phrase/phrase-php</text></g><!--MD5=[431bf97f09493fe295d612ad4ebfd9b8]
entity java--><g id="elem_java"><path d="M733,393 L774,393 A3.75,3.75 0 0 1 776.5,395.5 L783.5,414 L890,414 A2.5,2.5 0 0 1 892.5,416.5 L892.5,444.7969 A2.5,2.5 0 0 1 890,447.2969 L733,447.2969 A2.5,2.5 0 0 1 730.5,444.7969 L730.5,395.5 A2.5,2.5 0 0 1 733,393 " fill="#F1F1F1" style="stroke:#181818;stroke-width:0.5;"/><line style="stroke:#181818;stroke-width:0.5;" x1="730.5" x2="783.5" y1="414" y2="414"/><text fill="#000000" font-family="sans-serif" font-size="14" lengthAdjust="spacing" textLength="132" x="740.5" y="433.9951">phrase/phrase-java</text></g><!--MD5=[c15c44eddbde3698217cfa31d0e69e09]
entity python--><g id="elem_python"><path d="M930,393 L971,393 A3.75,3.75 0 0 1 973.5,395.5 L980.5,414 L1109,414 A2.5,2.5 0 0 1 1111.5,416.5 L1111.5,444.7969 A2.5,2.5 0 0 1 1109,447.2969 L930,447.2969 A2.5,2.5 0 0 1 927.5,444.7969 L927.5,395.5 A2.5,2.5 0 0 1 930,393 " fill="#F1F1F1" style="stroke:#181818;stroke-width:0.5;"/><line style="stroke:#181818;stroke-width:0.5;" x1="927.5" x2="980.5" y1="414" y2="414"/><text fill="#000000" font-family="sans-serif" font-size="14" lengthAdjust="spacing" textLength="154" x="937.5" y="433.9951">phrase/phrase-python</text></g><!--MD5=[b44febeeef72cfd37b384650645b2a00]
entity go_actions--><g id="elem_go_actions"><ellipse cx="371.5" cy="577" fill="#F1F1F1" rx="12" ry="12" style="stroke:#181818;stroke-width:0.5;"/><polygon fill="#181818" points="367.5,565,373.5,560,371.5,565,373.5,570,367.5,565" style="stroke:#181818;stroke-width:1.0;"/><text fill="#000000" font-family="sans-serif" font-size="14" lengthAdjust="spacing" textLength="100" x="321.5" y="605.9951">Github actions</text></g><!--MD5=[2440dd13a51cfac06d1892ed1d953d34]
entity build_cli--><g id="elem_build_cli"><ellipse cx="439.5" cy="818" fill="#F1F1F1" rx="12" ry="12" style="stroke:#181818;stroke-width:0.5;"/><polygon fill="#181818" points="435.5,806,441.5,801,439.5,806,441.5,811,435.5,806" style="stroke:#181818;stroke-width:1.0;"/><text fill="#000000" font-family="sans-serif" font-size="14" lengthAdjust="spacing" textLength="100" x="389.5" y="846.9951">Github actions</text></g><!--MD5=[5d3c40160a6ab50a5363676e85983f04]
entity build_java--><g id="elem_build_java"><ellipse cx="731.5" cy="577" fill="#F1F1F1" rx="12" ry="12" style="stroke:#181818;stroke-width:0.5;"/><polygon fill="#181818" points="727.5,565,733.5,560,731.5,565,733.5,570,727.5,565" style="stroke:#181818;stroke-width:1.0;"/><text fill="#000000" font-family="sans-serif" font-size="14" lengthAdjust="spacing" textLength="100" x="681.5" y="605.9951">Github actions</text></g><!--MD5=[8a60c172ac197ff2572fef63d05b20a6]
entity go_library--><g id="elem_go_library"><path d="M320.5,686 L398.5,686 A3.75,3.75 0 0 1 401,688.5 L408,708.2969 L422.5,708.2969 A2.5,2.5 0 0 1 425,710.7969 L425,722.7969 A2.5,2.5 0 0 1 422.5,725.2969 L320.5,725.2969 A2.5,2.5 0 0 1 318,722.7969 L318,688.5 A2.5,2.5 0 0 1 320.5,686 " fill="#F1F1F1" style="stroke:#181818;stroke-width:0.5;"/><line style="stroke:#181818;stroke-width:0.5;" x1="318" x2="408" y1="708.2969" y2="708.2969"/><text fill="#000000" font-family="sans-serif" font-size="14" lengthAdjust="spacing" textLength="65" x="328" y="701.9951">go_library</text></g><!--MD5=[f498bfb6a50953d290bdf627d6fd2c60]
entity docker_images--><g id="elem_docker_images"><rect fill="#F1F1F1" height="39.2969" rx="2.5" ry="2.5" style="stroke:#181818;stroke-width:0.5;" width="158" x="280.5" y="927"/><polygon fill="#F1F1F1" points="421.5,932,421.5,946,433.5,946,433.5,938,427.5,932,421.5,932" style="stroke:#181818;stroke-width:0.5;"/><line style="stroke:#181818;stroke-width:0.5;" x1="427.5" x2="427.5" y1="932" y2="938"/><line style="stroke:#181818;stroke-width:0.5;" x1="433.5" x2="427.5" y1="938" y2="938"/><text fill="#000000" font-family="sans-serif" font-size="14" lengthAdjust="spacing" textLength="128" x="290.5" y="952.9951">Docker CLI images</text></g><!--MD5=[c2796faf4134bd8b5f3bc71f44d02e74]
entity jar--><g id="elem_jar"><rect fill="#F1F1F1" height="39.2969" rx="2.5" ry="2.5" style="stroke:#181818;stroke-width:0.5;" width="46" x="798.5" y="686"/><polygon fill="#F1F1F1" points="827.5,691,827.5,705,839.5,705,839.5,697,833.5,691,827.5,691" style="stroke:#181818;stroke-width:0.5;"/><line style="stroke:#181818;stroke-width:0.5;" x1="833.5" x2="833.5" y1="691" y2="697"/><line style="stroke:#181818;stroke-width:0.5;" x1="839.5" x2="833.5" y1="697" y2="697"/><text fill="#000000" font-family="sans-serif" font-size="14" lengthAdjust="spacing" textLength="16" x="808.5" y="711.9951">jar</text></g><!--MD5=[2c7372832d9e783738d99ecf0bfc8dde]
entity homebrew--><g id="elem_homebrew"><rect fill="#F1F1F1" height="22.2969" rx="2.5" ry="2.5" style="stroke:#181818;stroke-width:0.5;" width="94" x="473.5" y="935.5"/><text fill="#000000" font-family="sans-serif" font-size="14" lengthAdjust="spacing" textLength="74" x="483.5" y="951.4951">homebrew</text></g><!--MD5=[fad38f6ce6c98319c380bb868f6f9a58]
entity github_package_registry--><g id="elem_github_package_registry"><rect fill="#F1F1F1" height="32.2969" rx="2.5" ry="2.5" style="stroke:#181818;stroke-width:0.5;" width="180" x="733.5" y="812"/><rect fill="#F1F1F1" height="32.2969" rx="2.5" ry="2.5" style="stroke:#181818;stroke-width:0.5;" width="180" x="729.5" y="808"/><text fill="#000000" font-family="sans-serif" font-size="14" lengthAdjust="spacing" textLength="164" x="737.5" y="828.9951">Github package registry</text></g><!--MD5=[004b1a9d37afc47e2e95d44d2881ab66]
link changes to openapi--><g id="link_changes_openapi"><path d="M545.5,76.24 C545.5,98.08 545.5,126.3 545.5,147.65 " fill="none" id="changes-to-openapi" style="stroke:#181818;stroke-width:1.0;"/><polygon fill="#181818" points="545.5,152.92,549.5,143.92,545.5,147.92,541.5,143.92,545.5,152.92" style="stroke:#181818;stroke-width:1.0;"/><text fill="#000000" font-family="sans-serif" font-size="13" lengthAdjust="spacing" textLength="31" x="546.5" y="119.0669">push</text></g><!--MD5=[2f01160c9f8bbac06160652c1cb1e875]
link openapi to actions--><g id="link_openapi_actions"><path d="M545.5,207.07 C545.5,223.77 545.5,245.44 545.5,262.57 " fill="none" id="openapi-to-actions" style="stroke:#181818;stroke-width:1.0;"/><polygon fill="#181818" points="545.5,267.74,549.5,258.74,545.5,262.74,541.5,258.74,545.5,267.74" style="stroke:#181818;stroke-width:1.0;"/></g><!--MD5=[2cee70cf28089589574d0fd90a78afc3]
link actions to docs--><g id="link_actions_docs"><path d="M495.4,308.07 C461.67,318.38 416.26,332.55 376.5,346 C318.88,365.49 252.68,389.93 212.49,405.01 " fill="none" id="actions-to-docs" style="stroke:#181818;stroke-width:1.0;"/><polygon fill="#181818" points="207.72,406.8,217.5515,407.3852,212.4016,405.0444,214.7425,399.8946,207.72,406.8" style="stroke:#181818;stroke-width:1.0;"/></g><!--MD5=[6334d8fc07670a892897ee53af1fecec]
link docs to developers--><g id="link_docs_developers"><path d="M172.17,439.7 C167.06,468.43 157.25,523.59 151.35,556.77 " fill="none" id="docs-to-developers" style="stroke:#181818;stroke-width:1.0;"/><polygon fill="#181818" points="150.43,561.9,155.94,553.7367,151.303,556.9768,148.0629,552.3398,150.43,561.9" style="stroke:#181818;stroke-width:1.0;"/><text fill="#000000" font-family="sans-serif" font-size="13" lengthAdjust="spacing" textLength="45" x="166.5" y="508.5669">publish</text></g><!--MD5=[8a7d5ef6077e6261da41a69ca3ee79a5]
link actions to go--><g id="link_actions_go"><path d="M495.34,303.95 C466.18,312.08 429.91,325.4 402.5,346 C387.54,357.24 374.84,373.76 365.52,388.24 " fill="none" id="actions-to-go" style="stroke:#181818;stroke-width:1.0;"/><polygon fill="#181818" points="362.74,392.66,370.9203,387.1752,365.4041,388.4288,364.1504,382.9127,362.74,392.66" style="stroke:#181818;stroke-width:1.0;"/><text fill="#000000" font-family="sans-serif" font-size="13" lengthAdjust="spacing" textLength="31" x="403.5" y="359.0669">push</text></g><!--MD5=[f4c5d8bcb7dcaea921ecc6853cc22771]
link actions to php--><g id="link_actions_php"><path d="M557.97,316.11 C568.93,336.41 584.94,366.09 596.96,388.36 " fill="none" id="actions-to-php" style="stroke:#181818;stroke-width:1.0;"/><polygon fill="#181818" points="599.46,392.99,598.7112,383.1696,597.0878,388.5886,591.6689,386.9652,599.46,392.99" style="stroke:#181818;stroke-width:1.0;"/><text fill="#000000" font-family="sans-serif" font-size="13" lengthAdjust="spacing" textLength="31" x="583.5" y="359.0669">push</text></g><!--MD5=[0a6d3184912226eb4ea7609bf2157d28]
link actions to java--><g id="link_actions_java"><path d="M594.29,316.11 C638.75,337.17 704.54,368.33 752.06,390.84 " fill="none" id="actions-to-java" style="stroke:#181818;stroke-width:1.0;"/><polygon fill="#181818" points="756.6,392.99,750.1848,385.517,752.0831,390.8459,746.7542,392.7441,756.6,392.99" style="stroke:#181818;stroke-width:1.0;"/><text fill="#000000" font-family="sans-serif" font-size="13" lengthAdjust="spacing" textLength="31" x="687.5" y="359.0669">push</text></g><!--MD5=[b5873dd987ca9f93855d081d0a308cf9]
link actions to python--><g id="link_actions_python"><path d="M595.78,306.36 C673.22,326.95 823.08,366.79 922.22,393.14 " fill="none" id="actions-to-python" style="stroke:#181818;stroke-width:1.0;"/><polygon fill="#181818" points="927.2,394.46,919.5152,388.3001,922.3648,393.1868,917.4781,396.0364,927.2,394.46" style="stroke:#181818;stroke-width:1.0;"/><text fill="#000000" font-family="sans-serif" font-size="13" lengthAdjust="spacing" textLength="31" x="798.5" y="359.0669">push</text></g><!--MD5=[e8c1cc55ab9bb4afb632ee8ceea2efae]
link actions to cli--><g id="link_actions_cli"><path d="M538.07,316.28 C525.96,354.24 501.94,429.52 488.4,471.99 " fill="none" id="actions-to-cli" style="stroke:#181818;stroke-width:1.0;"/><polygon fill="#181818" points="486.8,477,493.3414,469.6373,488.3166,472.2356,485.7183,467.2107,486.8,477" style="stroke:#181818;stroke-width:1.0;"/><text fill="#000000" font-family="sans-serif" font-size="13" lengthAdjust="spacing" textLength="31" x="530.5" y="359.0669">push</text></g><!--MD5=[14ac31e8d56821db6e6124e7b12158db]
link go to go_actions--><g id="link_go_go_actions"><path d="M352.2,447.19 C356.38,476.88 363.19,525.11 367.5,555.66 " fill="none" id="go-to-go_actions" style="stroke:#181818;stroke-width:1.0;"/><polygon fill="#181818" points="368.22,560.78,370.9223,551.3091,367.5209,555.8291,363.0009,552.4277,368.22,560.78" style="stroke:#181818;stroke-width:1.0;"/></g><!--MD5=[732a82abb55e5797b03369c9bf5ea4dd]
link go_actions to go_library--><g id="link_go_actions_go_library"><path d="M371.5,609.13 C371.5,629.74 371.5,659.79 371.5,680.63 " fill="none" id="go_actions-to-go_library" style="stroke:#181818;stroke-width:1.0;"/><polygon fill="#181818" points="371.5,685.72,375.5,676.72,371.5,680.72,367.5,676.72,371.5,685.72" style="stroke:#181818;stroke-width:1.0;"/><text fill="#000000" font-family="sans-serif" font-size="13" lengthAdjust="spacing" textLength="45" x="372.5" y="652.0669">publish</text></g><!--MD5=[9d471a4932fbe0a79043709da12adc53]
link cli to build_cli--><g id="link_cli_build_cli"><path d="M475.31,531.19 C468.07,590.59 450.45,735.17 442.96,796.62 " fill="none" id="cli-to-build_cli" style="stroke:#181818;stroke-width:1.0;"/><polygon fill="#181818" points="442.31,801.95,447.3625,793.4959,442.9108,796.9862,439.4204,792.5346,442.31,801.95" style="stroke:#181818;stroke-width:1.0;"/></g><!--MD5=[bf01fa6e9bc5ad96c1eb58cef8f2188a]
link go_library to build_cli--><g id="link_go_library_build_cli"><path d="M382.12,725.02 C393.21,744.34 410.73,774.87 423.5,797.12 " fill="none" id="go_library-to-build_cli" style="stroke:#181818;stroke-width:1.0;stroke-dasharray:7.0,7.0;"/><polygon fill="#181818" points="426.15,801.73,425.1508,791.932,423.6662,797.3905,418.2077,795.906,426.15,801.73" style="stroke:#181818;stroke-width:1.0;"/><text fill="#000000" font-family="sans-serif" font-size="13" lengthAdjust="spacing" textLength="23" x="409.5" y="768.0669">use</text></g><!--MD5=[4579367eb33dc51b0c9092d0b613f74a]
link build_cli to homebrew--><g id="link_build_cli_homebrew"><path d="M455.31,850.13 C471.75,874.17 496.96,911.06 510.71,931.18 " fill="none" id="build_cli-to-homebrew" style="stroke:#181818;stroke-width:1.0;"/><polygon fill="#181818" points="513.63,935.45,511.8431,925.7646,510.804,931.3252,505.2434,930.2862,513.63,935.45" style="stroke:#181818;stroke-width:1.0;"/><text fill="#000000" font-family="sans-serif" font-size="13" lengthAdjust="spacing" textLength="90" x="488.5" y="893.0669">bump formula</text></g><!--MD5=[c98974c909ec6885ced1c51bb64d7ca7]
link build_cli to docker_images--><g id="link_build_cli_docker_images"><path d="M423.89,850.13 C409.79,871.01 389.17,901.56 375.08,922.42 " fill="none" id="build_cli-to-docker_images" style="stroke:#181818;stroke-width:1.0;"/><polygon fill="#181818" points="372.18,926.72,380.5337,921.5032,374.9798,922.5774,373.9056,917.0235,372.18,926.72" style="stroke:#181818;stroke-width:1.0;"/><text fill="#000000" font-family="sans-serif" font-size="13" lengthAdjust="spacing" textLength="31" x="403.5" y="893.0669">push</text></g><!--MD5=[9457594297380c8211bf65de5d47ef8c]
link java to build_java--><g id="link_java_build_java"><path d="M798.65,447.19 C784.01,477 760.21,525.51 745.22,556.04 " fill="none" id="java-to-build_java" style="stroke:#181818;stroke-width:1.0;"/><polygon fill="#181818" points="742.9,560.78,750.4544,554.4609,745.1017,556.2908,743.2717,550.9382,742.9,560.78" style="stroke:#181818;stroke-width:1.0;"/></g><!--MD5=[6f8d9305c1a90289e01c56a54a003567]
link build_java to jar--><g id="link_build_java_jar"><path d="M749.07,609.13 C764.99,630.09 788.32,660.81 804.17,681.68 " fill="none" id="build_java-to-jar" style="stroke:#181818;stroke-width:1.0;"/><polygon fill="#181818" points="807.23,685.72,804.975,676.1328,804.2071,681.7373,798.6026,680.9694,807.23,685.72" style="stroke:#181818;stroke-width:1.0;"/><text fill="#000000" font-family="sans-serif" font-size="13" lengthAdjust="spacing" textLength="30" x="786.5" y="652.0669">build</text></g><!--MD5=[b7bb666a73e0b5ab2961cf1bb4fa3377]
link jar to java--><g id="link_jar_java"><path d="M823.42,685.64 C824.24,676.67 825.1,665.79 825.5,656 C825.81,648.45 825.74,646.55 825.5,639 C823.37,572.48 817.58,494.71 814.15,452.38 " fill="none" id="jar-to-java" style="stroke:#181818;stroke-width:1.0;stroke-dasharray:7.0,7.0;"/><polygon fill="#181818" points="813.72,447.15,810.4547,456.4418,814.121,452.1339,818.4289,455.8002,813.72,447.15" style="stroke:#181818;stroke-width:1.0;"/><text fill="#000000" font-family="sans-serif" font-size="13" lengthAdjust="spacing" textLength="111" x="825.5" y="589.5669">upload to release</text></g><!--MD5=[b68161d6877aa7c7f3eb8875147173d4]
link jar to github_package_registry--><g id="link_jar_github_package_registry"><path d="M821.5,725.02 C821.5,745.99 821.5,780.15 821.5,802.61 " fill="none" id="jar-to-github_package_registry" style="stroke:#181818;stroke-width:1.0;"/><polygon fill="#181818" points="821.5,807.77,825.5,798.77,821.5,802.77,817.5,798.77,821.5,807.77" style="stroke:#181818;stroke-width:1.0;"/><text fill="#000000" font-family="sans-serif" font-size="13" lengthAdjust="spacing" textLength="45" x="822.5" y="768.0669">publish</text></g><!--MD5=[ecfd3126abb0ea6c70983476a4e85830]
@startuml "openapi workflow"

collections "* API changes\n* bug fixes\n*doc updates" as changes
folder "phrase/openapi" as openapi
control "Github actions" as actions

artifact docs
frame "https://developers.phrase.com/api" as developers

folder "phrase/phrase-go" as go
folder "phrase/phrase-cli" as cli
folder "phrase/phrase-php" as php
folder "phrase/phrase-java" as java
folder "phrase/phrase-python" as python

control "Github actions" as go_actions
control "Github actions" as build_cli
control "Github actions" as build_java
package go_library
artifact "Docker CLI images" as docker_images
artifact jar
card homebrew
collections "Github package registry" as github_package_registry

changes - -> openapi : push
openapi- ->actions
actions - -> docs
docs - -> developers : publish
actions - -> go : push
actions - -> php : push
actions - -> java : push
actions - -> python : push
actions - -> cli : push
go - -> go_actions
go_actions - -> go_library : publish
cli - -> build_cli
go_library ..> build_cli : use
build_cli - -> homebrew : bump formula
build_cli - -> docker_images : push
java - -> build_java
build_java - -> jar : build
jar ..> java : upload to release
jar - -> github_package_registry : publish

@enduml

PlantUML version 1.2022.7(Mon Aug 22 19:01:30 CEST 2022)
(GPL source distribution)
Java Runtime: OpenJDK Runtime Environment
JVM: OpenJDK 64-Bit Server VM
Default Encoding: ANSI_X3.4-1968
Language: en
Country: US
--></g></svg>