<?xml version="1.0" encoding="UTF-8" standalone="no"?><svg xmlns="http://www.w3.org/2000/svg" xmlns:xlink="http://www.w3.org/1999/xlink" contentStyleType="text/css" height="710px" preserveAspectRatio="none" style="width:1194px;height:710px;background:#FFFFFF;" version="1.1" viewBox="0 0 1194 710" width="1194px" zoomAndPan="magnify"><defs/><g><!--MD5=[1b22b79248ccb6293af42a8a913dbfdf]
entity changes--><g id="elem_changes"><rect fill="#98FB98" height="64.8906" rx="2.5" ry="2.5" style="stroke:#181818;stroke-width:0.5;" width="116" x="585.5" y="11"/><rect fill="#98FB98" height="64.8906" rx="2.5" ry="2.5" style="stroke:#181818;stroke-width:0.5;" width="116" x="581.5" y="7"/><ellipse cx="595" cy="23.7969" fill="#000000" rx="2.5" ry="2.5" style="stroke:#000000;stroke-width:0.0;"/><text fill="#000000" font-family="sans-serif" font-size="14" lengthAdjust="spacing" textLength="85" x="602.5" y="27.9951">API changes</text><ellipse cx="595" cy="40.0938" fill="#000000" rx="2.5" ry="2.5" style="stroke:#000000;stroke-width:0.0;"/><text fill="#000000" font-family="sans-serif" font-size="14" lengthAdjust="spacing" textLength="62" x="602.5" y="44.292">bug fixes</text><ellipse cx="595" cy="56.3906" fill="#000000" rx="2.5" ry="2.5" style="stroke:#000000;stroke-width:0.0;"/><text fill="#000000" font-family="sans-serif" font-size="14" lengthAdjust="spacing" textLength="87" x="602.5" y="60.5889">doc updates</text></g><!--MD5=[14a30be117cfd50cacc3e005e456268b]
entity openapi--><g id="elem_openapi"><path d="M574.5,153 L615.5,153 A3.75,3.75 0 0 1 618,155.5 L625,174 L708.5,174 A2.5,2.5 0 0 1 711,176.5 L711,204.7969 A2.5,2.5 0 0 1 708.5,207.2969 L574.5,207.2969 A2.5,2.5 0 0 1 572,204.7969 L572,155.5 A2.5,2.5 0 0 1 574.5,153 " fill="#F0F8FF" style="stroke:#181818;stroke-width:0.5;"/><line style="stroke:#181818;stroke-width:0.5;" x1="572" x2="625" y1="174" y2="174"/><text fill="#000000" font-family="sans-serif" font-size="14" lengthAdjust="spacing" textLength="109" x="582" y="193.9951">phrase/openapi</text></g><!--MD5=[66f9f88c9fb598cb139af963a53d9228]
entity actions--><g id="elem_actions"><ellipse cx="641.5" cy="284" fill="#F1F1F1" rx="12" ry="12" style="stroke:#181818;stroke-width:0.5;"/><polygon fill="#181818" points="637.5,272,643.5,267,641.5,272,643.5,277,637.5,272" style="stroke:#181818;stroke-width:1.0;"/><text fill="#000000" font-family="sans-serif" font-size="14" lengthAdjust="spacing" textLength="33" x="625" y="312.9951">build</text></g><!--MD5=[57a5b41ed6b3ba96fe9b4a740eb3fdc7]
entity docs--><g id="elem_docs"><rect fill="#F1F1F1" height="39.2969" rx="2.5" ry="2.5" style="stroke:#181818;stroke-width:0.5;" width="64" x="129.5" y="400.5"/><polygon fill="#F1F1F1" points="176.5,405.5,176.5,419.5,188.5,419.5,188.5,411.5,182.5,405.5,176.5,405.5" style="stroke:#181818;stroke-width:0.5;"/><line style="stroke:#181818;stroke-width:0.5;" x1="182.5" x2="182.5" y1="405.5" y2="411.5"/><line style="stroke:#181818;stroke-width:0.5;" x1="188.5" x2="182.5" y1="411.5" y2="411.5"/><text fill="#000000" font-family="sans-serif" font-size="14" lengthAdjust="spacing" textLength="34" x="139.5" y="426.4951">docs</text></g><!--MD5=[00ae9dff0f4157a1e57a574ba384be82]
entity developers--><g id="elem_developers"><rect fill="#F1F1F1" height="46.2969" rx="2.5" ry="2.5" style="stroke:#181818;stroke-width:0.5;" width="279" x="7" y="525"/><path d="M100,525 L100,530 L93,537 L7,537 " fill="none" style="stroke:#181818;stroke-width:0.5;"/><text fill="#000000" font-family="sans-serif" font-size="14" lengthAdjust="spacing" textLength="239" x="22" y="557.9951">https://developers.phrase.com/api</text></g><!--MD5=[f35a8ea5a03aa35ec4be5e3defd7a1a2]
entity go--><g id="elem_go"><path d="M236,393 L277,393 A3.75,3.75 0 0 1 279.5,395.5 L286.5,414 L385,414 A2.5,2.5 0 0 1 387.5,416.5 L387.5,444.7969 A2.5,2.5 0 0 1 385,447.2969 L236,447.2969 A2.5,2.5 0 0 1 233.5,444.7969 L233.5,395.5 A2.5,2.5 0 0 1 236,393 " fill="#F0F8FF" style="stroke:#181818;stroke-width:0.5;"/><line style="stroke:#181818;stroke-width:0.5;" x1="233.5" x2="286.5" y1="414" y2="414"/><text fill="#000000" font-family="sans-serif" font-size="14" lengthAdjust="spacing" textLength="124" x="243.5" y="433.9951">phrase/phrase-go</text></g><!--MD5=[c251b62818238b6f79269adc5bf7d1e2]
entity cli--><g id="elem_cli"><path d="M425,393 L466,393 A3.75,3.75 0 0 1 468.5,395.5 L475.5,414 L570,414 A2.5,2.5 0 0 1 572.5,416.5 L572.5,444.7969 A2.5,2.5 0 0 1 570,447.2969 L425,447.2969 A2.5,2.5 0 0 1 422.5,444.7969 L422.5,395.5 A2.5,2.5 0 0 1 425,393 " fill="#F0F8FF" style="stroke:#181818;stroke-width:0.5;"/><line style="stroke:#181818;stroke-width:0.5;" x1="422.5" x2="475.5" y1="414" y2="414"/><text fill="#000000" font-family="sans-serif" font-size="14" lengthAdjust="spacing" textLength="120" x="432.5" y="433.9951">phrase/phrase-cli</text></g><!--MD5=[0c3cc20b8e9318d96d36a52f58b7345d]
entity php--><g id="elem_php"><path d="M610.5,393 L651.5,393 A3.75,3.75 0 0 1 654,395.5 L661,414 L768.5,414 A2.5,2.5 0 0 1 771,416.5 L771,444.7969 A2.5,2.5 0 0 1 768.5,447.2969 L610.5,447.2969 A2.5,2.5 0 0 1 608,444.7969 L608,395.5 A2.5,2.5 0 0 1 610.5,393 " fill="#F0F8FF" style="stroke:#181818;stroke-width:0.5;"/><line style="stroke:#181818;stroke-width:0.5;" x1="608" x2="661" y1="414" y2="414"/><text fill="#000000" font-family="sans-serif" font-size="14" lengthAdjust="spacing" textLength="133" x="618" y="433.9951">phrase/phrase-php</text></g><!--MD5=[431bf97f09493fe295d612ad4ebfd9b8]
entity java--><g id="elem_java"><path d="M809,393 L850,393 A3.75,3.75 0 0 1 852.5,395.5 L859.5,414 L966,414 A2.5,2.5 0 0 1 968.5,416.5 L968.5,444.7969 A2.5,2.5 0 0 1 966,447.2969 L809,447.2969 A2.5,2.5 0 0 1 806.5,444.7969 L806.5,395.5 A2.5,2.5 0 0 1 809,393 " fill="#F0F8FF" style="stroke:#181818;stroke-width:0.5;"/><line style="stroke:#181818;stroke-width:0.5;" x1="806.5" x2="859.5" y1="414" y2="414"/><text fill="#000000" font-family="sans-serif" font-size="14" lengthAdjust="spacing" textLength="132" x="816.5" y="433.9951">phrase/phrase-java</text></g><!--MD5=[c15c44eddbde3698217cfa31d0e69e09]
entity python--><g id="elem_python"><path d="M1006,393 L1047,393 A3.75,3.75 0 0 1 1049.5,395.5 L1056.5,414 L1185,414 A2.5,2.5 0 0 1 1187.5,416.5 L1187.5,444.7969 A2.5,2.5 0 0 1 1185,447.2969 L1006,447.2969 A2.5,2.5 0 0 1 1003.5,444.7969 L1003.5,395.5 A2.5,2.5 0 0 1 1006,393 " fill="#F0F8FF" style="stroke:#181818;stroke-width:0.5;"/><line style="stroke:#181818;stroke-width:0.5;" x1="1003.5" x2="1056.5" y1="414" y2="414"/><text fill="#000000" font-family="sans-serif" font-size="14" lengthAdjust="spacing" textLength="154" x="1013.5" y="433.9951">phrase/phrase-python</text></g><!--MD5=[b44febeeef72cfd37b384650645b2a00]
entity go_actions--><g id="elem_go_actions"><ellipse cx="337.5" cy="540" fill="#F1F1F1" rx="12" ry="12" style="stroke:#181818;stroke-width:0.5;"/><polygon fill="#181818" points="333.5,528,339.5,523,337.5,528,339.5,533,333.5,528" style="stroke:#181818;stroke-width:1.0;"/><text fill="#000000" font-family="sans-serif" font-size="14" lengthAdjust="spacing" textLength="33" x="321" y="568.9951">build</text></g><!--MD5=[2440dd13a51cfac06d1892ed1d953d34]
entity build_cli--><g id="elem_build_cli"><ellipse cx="499.5" cy="540" fill="#F1F1F1" rx="12" ry="12" style="stroke:#181818;stroke-width:0.5;"/><polygon fill="#181818" points="495.5,528,501.5,523,499.5,528,501.5,533,495.5,528" style="stroke:#181818;stroke-width:1.0;"/><text fill="#000000" font-family="sans-serif" font-size="14" lengthAdjust="spacing" textLength="33" x="483" y="568.9951">build</text></g><!--MD5=[5d3c40160a6ab50a5363676e85983f04]
entity build_java--><g id="elem_build_java"><ellipse cx="866.5" cy="540" fill="#F1F1F1" rx="12" ry="12" style="stroke:#181818;stroke-width:0.5;"/><polygon fill="#181818" points="862.5,528,868.5,523,866.5,528,868.5,533,862.5,528" style="stroke:#181818;stroke-width:1.0;"/><text fill="#000000" font-family="sans-serif" font-size="14" lengthAdjust="spacing" textLength="33" x="850" y="568.9951">build</text></g><!--MD5=[8a60c172ac197ff2572fef63d05b20a6]
entity go_library--><g id="elem_go_library"><rect fill="#F1F1F1" height="39.2969" rx="2.5" ry="2.5" style="stroke:#181818;stroke-width:0.5;" width="95" x="290" y="656.5"/><polygon fill="#F1F1F1" points="368,661.5,368,675.5,380,675.5,380,667.5,374,661.5,368,661.5" style="stroke:#181818;stroke-width:0.5;"/><line style="stroke:#181818;stroke-width:0.5;" x1="374" x2="374" y1="661.5" y2="667.5"/><line style="stroke:#181818;stroke-width:0.5;" x1="380" x2="374" y1="667.5" y2="667.5"/><text fill="#000000" font-family="sans-serif" font-size="14" lengthAdjust="spacing" textLength="65" x="300" y="682.4951">go_library</text></g><!--MD5=[f498bfb6a50953d290bdf627d6fd2c60]
entity docker_images--><g id="elem_docker_images"><rect fill="#F1F1F1" height="39.2969" rx="2.5" ry="2.5" style="stroke:#181818;stroke-width:0.5;" width="158" x="420.5" y="656.5"/><polygon fill="#F1F1F1" points="561.5,661.5,561.5,675.5,573.5,675.5,573.5,667.5,567.5,661.5,561.5,661.5" style="stroke:#181818;stroke-width:0.5;"/><line style="stroke:#181818;stroke-width:0.5;" x1="567.5" x2="567.5" y1="661.5" y2="667.5"/><line style="stroke:#181818;stroke-width:0.5;" x1="573.5" x2="567.5" y1="667.5" y2="667.5"/><text fill="#000000" font-family="sans-serif" font-size="14" lengthAdjust="spacing" textLength="128" x="430.5" y="682.4951">Docker CLI images</text></g><!--MD5=[2c7372832d9e783738d99ecf0bfc8dde]
entity homebrew--><g id="elem_homebrew"><path d="M616,649 L657,649 A3.75,3.75 0 0 1 659.5,651.5 L666.5,670 L715,670 A2.5,2.5 0 0 1 717.5,672.5 L717.5,700.7969 A2.5,2.5 0 0 1 715,703.2969 L616,703.2969 A2.5,2.5 0 0 1 613.5,700.7969 L613.5,651.5 A2.5,2.5 0 0 1 616,649 " fill="#F1F1F1" style="stroke:#181818;stroke-width:0.5;"/><line style="stroke:#181818;stroke-width:0.5;" x1="613.5" x2="666.5" y1="670" y2="670"/><text fill="#000000" font-family="sans-serif" font-size="14" lengthAdjust="spacing" textLength="74" x="623.5" y="689.9951">homebrew</text></g><!--MD5=[fad38f6ce6c98319c380bb868f6f9a58]
entity github_package_registry--><g id="elem_github_package_registry"><rect fill="#F1F1F1" height="32.2969" rx="2.5" ry="2.5" style="stroke:#181818;stroke-width:0.5;" width="180" x="778.5" y="662"/><rect fill="#F1F1F1" height="32.2969" rx="2.5" ry="2.5" style="stroke:#181818;stroke-width:0.5;" width="180" x="774.5" y="658"/><text fill="#000000" font-family="sans-serif" font-size="14" lengthAdjust="spacing" textLength="164" x="782.5" y="678.9951">Github package registry</text></g><!--MD5=[004b1a9d37afc47e2e95d44d2881ab66]
link changes to openapi--><g id="link_changes_openapi"><path d="M641.5,76.24 C641.5,98.08 641.5,126.3 641.5,147.65 " fill="none" id="changes-to-openapi" style="stroke:#181818;stroke-width:1.0;"/><polygon fill="#181818" points="641.5,152.92,645.5,143.92,641.5,147.92,637.5,143.92,641.5,152.92" style="stroke:#181818;stroke-width:1.0;"/><text fill="#000000" font-family="sans-serif" font-size="13" lengthAdjust="spacing" textLength="31" x="642.5" y="119.0669">push</text></g><!--MD5=[2f01160c9f8bbac06160652c1cb1e875]
link openapi to actions--><g id="link_openapi_actions"><path d="M641.5,207.07 C641.5,223.77 641.5,245.44 641.5,262.57 " fill="none" id="openapi-to-actions" style="stroke:#181818;stroke-width:1.0;"/><polygon fill="#181818" points="641.5,267.74,645.5,258.74,641.5,262.74,637.5,258.74,641.5,267.74" style="stroke:#181818;stroke-width:1.0;"/></g><!--MD5=[2cee70cf28089589574d0fd90a78afc3]
link actions to docs--><g id="link_actions_docs"><path d="M624.88,295.56 C567.12,304.72 370.22,338.33 215.5,393 C209.83,395 203.96,397.43 198.28,399.98 " fill="none" id="actions-to-docs" style="stroke:#181818;stroke-width:1.0;"/><polygon fill="#181818" points="193.56,402.15,203.4081,402.03,198.104,400.0638,200.0702,394.7596,193.56,402.15" style="stroke:#181818;stroke-width:1.0;"/></g><!--MD5=[6334d8fc07670a892897ee53af1fecec]
link docs to developers--><g id="link_docs_developers"><path d="M159.29,439.59 C156.76,460.81 152.61,495.7 149.72,519.93 " fill="none" id="docs-to-developers" style="stroke:#181818;stroke-width:1.0;"/><polygon fill="#181818" points="149.13,524.94,154.1796,516.4841,149.7291,519.976,146.2372,515.5256,149.13,524.94" style="stroke:#181818;stroke-width:1.0;"/><text fill="#000000" font-family="sans-serif" font-size="13" lengthAdjust="spacing" textLength="45" x="155.5" y="490.0669">publish</text></g><!--MD5=[8a7d5ef6077e6261da41a69ca3ee79a5]
link actions to go--><g id="link_actions_go"><path d="M624.63,299.42 C580.99,316.03 462.35,361.2 384.01,391.02 " fill="none" id="actions-to-go" style="stroke:#181818;stroke-width:1.0;"/><polygon fill="#181818" points="378.91,392.96,388.7435,393.509,383.5852,391.1872,385.907,386.0288,378.91,392.96" style="stroke:#181818;stroke-width:1.0;"/><text fill="#000000" font-family="sans-serif" font-size="13" lengthAdjust="spacing" textLength="31" x="497.5" y="359.0669">push</text></g><!--MD5=[f4c5d8bcb7dcaea921ecc6853cc22771]
link actions to php--><g id="link_actions_php"><path d="M650.3,316.11 C658,336.32 669.25,365.84 677.72,388.08 " fill="none" id="actions-to-php" style="stroke:#181818;stroke-width:1.0;"/><polygon fill="#181818" points="679.59,392.99,680.139,383.1565,677.8172,388.3148,672.6588,385.993,679.59,392.99" style="stroke:#181818;stroke-width:1.0;"/><text fill="#000000" font-family="sans-serif" font-size="13" lengthAdjust="spacing" textLength="31" x="668.5" y="359.0669">push</text></g><!--MD5=[0a6d3184912226eb4ea7609bf2157d28]
link actions to java--><g id="link_actions_java"><path d="M658.02,301.46 C693.02,319.39 775.99,361.89 831.97,390.56 " fill="none" id="actions-to-java" style="stroke:#181818;stroke-width:1.0;"/><polygon fill="#181818" points="836.62,392.94,830.4174,385.2896,832.1651,390.6697,826.785,392.4174,836.62,392.94" style="stroke:#181818;stroke-width:1.0;"/><text fill="#000000" font-family="sans-serif" font-size="13" lengthAdjust="spacing" textLength="31" x="773.5" y="359.0669">push</text></g><!--MD5=[b5873dd987ca9f93855d081d0a308cf9]
link actions to python--><g id="link_actions_python"><path d="M658.2,297.63 C712.5,312.71 887.02,361.14 998.48,392.07 " fill="none" id="actions-to-python" style="stroke:#181818;stroke-width:1.0;"/><polygon fill="#181818" points="1003.41,393.44,995.8156,387.169,998.5938,392.0966,993.6662,394.8748,1003.41,393.44" style="stroke:#181818;stroke-width:1.0;"/><text fill="#000000" font-family="sans-serif" font-size="13" lengthAdjust="spacing" textLength="31" x="883.5" y="359.0669">push</text></g><!--MD5=[e8c1cc55ab9bb4afb632ee8ceea2efae]
link actions to cli--><g id="link_actions_cli"><path d="M624.98,307.45 C602.22,327.37 560.67,363.72 531.2,389.51 " fill="none" id="actions-to-cli" style="stroke:#181818;stroke-width:1.0;"/><polygon fill="#181818" points="527.31,392.92,536.718,390.0063,531.0738,389.6285,531.4516,383.9843,527.31,392.92" style="stroke:#181818;stroke-width:1.0;"/><text fill="#000000" font-family="sans-serif" font-size="13" lengthAdjust="spacing" textLength="31" x="579.5" y="359.0669">push</text></g><!--MD5=[14ac31e8d56821db6e6124e7b12158db]
link go to go_actions--><g id="link_go_go_actions"><path d="M316.09,447.11 C320.58,468.06 326.88,497.42 331.48,518.89 " fill="none" id="go-to-go_actions" style="stroke:#181818;stroke-width:1.0;"/><polygon fill="#181818" points="332.55,523.89,334.5831,514.2533,331.5063,519.0002,326.7594,515.9233,332.55,523.89" style="stroke:#181818;stroke-width:1.0;"/></g><!--MD5=[732a82abb55e5797b03369c9bf5ea4dd]
link go_actions to go_library--><g id="link_go_actions_go_library"><path d="M337.5,572.11 C337.5,594.47 337.5,628.23 337.5,650.91 " fill="none" id="go_actions-to-go_library" style="stroke:#181818;stroke-width:1.0;"/><polygon fill="#181818" points="337.5,656.15,341.5,647.15,337.5,651.15,333.5,647.15,337.5,656.15" style="stroke:#181818;stroke-width:1.0;"/><text fill="#000000" font-family="sans-serif" font-size="13" lengthAdjust="spacing" textLength="45" x="338.5" y="615.0669">publish</text></g><!--MD5=[9d471a4932fbe0a79043709da12adc53]
link cli to build_cli--><g id="link_cli_build_cli"><path d="M480.99,447 C474.18,460.78 468.69,478.11 472.5,494 C474.56,502.56 478.24,511.31 482.24,519.16 " fill="none" id="cli-to-build_cli" style="stroke:#181818;stroke-width:1.0;"/><polygon fill="#181818" points="484.76,523.92,484.0871,514.0942,482.4219,519.5004,477.0157,517.8352,484.76,523.92" style="stroke:#181818;stroke-width:1.0;"/></g><!--MD5=[1db95241348d22c6e24b72bc8af95dde]
link build_cli to cli--><g id="link_build_cli_cli"><path d="M499.13,523.89 C498.81,503.8 498.35,474.5 498,452.3 " fill="none" id="build_cli-to-cli" style="stroke:#181818;stroke-width:1.0;stroke-dasharray:7.0,7.0;"/><polygon fill="#181818" points="497.91,447.11,494.039,456.1662,497.9814,452.1095,502.0382,456.0519,497.91,447.11" style="stroke:#181818;stroke-width:1.0;"/><text fill="#000000" font-family="sans-serif" font-size="13" lengthAdjust="spacing" textLength="111" x="500.5" y="490.0669">upload to release</text></g><!--MD5=[9cefca4bf5d7659ef77524115c7c9a7e]
link build_cli to go_library--><g id="link_build_cli_go_library"><path d="M482.77,562.01 C455.04,583.58 399.25,626.97 365.46,653.26 " fill="none" id="build_cli-to-go_library" style="stroke:#181818;stroke-width:1.0;stroke-dasharray:7.0,7.0;"/><polygon fill="#181818" points="361.45,656.38,371.0123,654.0215,365.3998,653.3142,366.1071,647.7018,361.45,656.38" style="stroke:#181818;stroke-width:1.0;"/><text fill="#000000" font-family="sans-serif" font-size="13" lengthAdjust="spacing" textLength="23" x="429.5" y="615.0669">use</text></g><!--MD5=[4579367eb33dc51b0c9092d0b613f74a]
link build_cli to homebrew--><g id="link_build_cli_homebrew"><path d="M516.02,561.54 C541.71,581.04 591.92,619.15 627.03,645.8 " fill="none" id="build_cli-to-homebrew" style="stroke:#181818;stroke-width:1.0;"/><polygon fill="#181818" points="631.24,648.99,626.4894,640.3626,627.2573,645.9671,621.6528,646.735,631.24,648.99" style="stroke:#181818;stroke-width:1.0;"/><text fill="#000000" font-family="sans-serif" font-size="13" lengthAdjust="spacing" textLength="90" x="588.5" y="615.0669">bump formula</text></g><!--MD5=[c98974c909ec6885ced1c51bb64d7ca7]
link build_cli to docker_images--><g id="link_build_cli_docker_images"><path d="M499.5,572.11 C499.5,594.47 499.5,628.23 499.5,650.91 " fill="none" id="build_cli-to-docker_images" style="stroke:#181818;stroke-width:1.0;"/><polygon fill="#181818" points="499.5,656.15,503.5,647.15,499.5,651.15,495.5,647.15,499.5,656.15" style="stroke:#181818;stroke-width:1.0;"/><text fill="#000000" font-family="sans-serif" font-size="13" lengthAdjust="spacing" textLength="31" x="500.5" y="615.0669">push</text></g><!--MD5=[9457594297380c8211bf65de5d47ef8c]
link java to build_java--><g id="link_java_build_java"><path d="M877.5,447.12 C874.37,456.42 871.28,467.05 869.5,477 C867.08,490.52 866.21,505.72 866,518.5 " fill="none" id="java-to-build_java" style="stroke:#181818;stroke-width:1.0;"/><polygon fill="#181818" points="865.94,523.81,870.017,514.8446,865.9829,518.8102,862.0173,514.776,865.94,523.81" style="stroke:#181818;stroke-width:1.0;"/></g><!--MD5=[209cd5dba3b37d591e312fe16bb7a266]
link build_java to java--><g id="link_build_java_java"><path d="M870.35,523.89 C873.7,503.8 878.58,474.5 882.28,452.3 " fill="none" id="build_java-to-java" style="stroke:#181818;stroke-width:1.0;stroke-dasharray:7.0,7.0;"/><polygon fill="#181818" points="883.15,447.11,877.7133,455.3223,882.3211,452.0408,885.6025,456.6486,883.15,447.11" style="stroke:#181818;stroke-width:1.0;"/><text fill="#000000" font-family="sans-serif" font-size="13" lengthAdjust="spacing" textLength="111" x="879.5" y="490.0669">upload to release</text></g><!--MD5=[e0af0947ed7021b29fb915a3f1b23577]
link build_java to github_package_registry--><g id="link_build_java_github_package_registry"><path d="M866.5,572.11 C866.5,595 866.5,629.82 866.5,652.5 " fill="none" id="build_java-to-github_package_registry" style="stroke:#181818;stroke-width:1.0;"/><polygon fill="#181818" points="866.5,657.7,870.5,648.7,866.5,652.7,862.5,648.7,866.5,657.7" style="stroke:#181818;stroke-width:1.0;"/><text fill="#000000" font-family="sans-serif" font-size="13" lengthAdjust="spacing" textLength="45" x="867.5" y="615.0669">publish</text></g><!--MD5=[d5bb4ac7784cd23b62686dcabcb8627d]
@startuml "openapi workflow"

collections "* API changes\n* bug fixes\n* doc updates" as changes #PaleGreen
folder "phrase/openapi" as openapi #AliceBlue
control "build" as actions

artifact docs
frame "https://developers.phrase.com/api" as developers

folder "phrase/phrase-go" as go #AliceBlue
folder "phrase/phrase-cli" as cli #AliceBlue
folder "phrase/phrase-php" as php #AliceBlue
folder "phrase/phrase-java" as java #AliceBlue
folder "phrase/phrase-python" as python #AliceBlue

control "build" as go_actions
control "build" as build_cli
control "build" as build_java
artifact go_library
artifact "Docker CLI images" as docker_images
folder homebrew
collections "Github package registry" as github_package_registry

changes - -> openapi : push
openapi- ->actions
actions - -> docs
docs - -> developers : publish
actions - -> go : push
actions - -> php : push
actions - -> java : push
actions - -> python : push
actions - -> cli : push
go - -> go_actions
go_actions - -> go_library : publish
cli - -> build_cli
build_cli ..> go_library : use
build_cli - -> homebrew : bump formula
build_cli - -> docker_images : push
build_cli ..> cli : upload to release
java - -> build_java
build_java ..> java : upload to release
build_java - -> github_package_registry : publish

@enduml

PlantUML version 1.2022.7(Mon Aug 22 19:01:30 CEST 2022)
(GPL source distribution)
Java Runtime: OpenJDK Runtime Environment
JVM: OpenJDK 64-Bit Server VM
Default Encoding: ANSI_X3.4-1968
Language: en
Country: US
--></g></svg>